<mxfile host="app.diagrams.net" agent="Mozilla/5.0 (Windows NT 10.0; Win64; x64) AppleWebKit/537.36 (KHTML, like Gecko) Chrome/131.0.0.0 Safari/537.36" version="25.0.1">
  <diagram name="第 1 页" id="5kZ3k5kyPNScydWYMPVq">
    <mxGraphModel dx="2059" dy="878" grid="0" gridSize="10" guides="1" tooltips="1" connect="1" arrows="1" fold="1" page="0" pageScale="1" pageWidth="827" pageHeight="1169" math="0" shadow="0">
      <root>
        <mxCell id="0" />
        <mxCell id="1" parent="0" />
        <mxCell id="08e77g5gVcFAM2FmxPXd-1" value="" style="edgeStyle=orthogonalEdgeStyle;rounded=0;orthogonalLoop=1;jettySize=auto;html=1;" edge="1" parent="1" source="08e77g5gVcFAM2FmxPXd-2" target="08e77g5gVcFAM2FmxPXd-6">
          <mxGeometry relative="1" as="geometry" />
        </mxCell>
        <mxCell id="08e77g5gVcFAM2FmxPXd-2" value="&lt;div&gt;&lt;span style=&quot;background-color: initial;&quot;&gt;开始&lt;/span&gt;&lt;/div&gt;" style="strokeWidth=2;html=1;shape=mxgraph.flowchart.start_2;whiteSpace=wrap;" vertex="1" parent="1">
          <mxGeometry x="184" y="147" width="95" height="95" as="geometry" />
        </mxCell>
        <mxCell id="08e77g5gVcFAM2FmxPXd-3" style="edgeStyle=orthogonalEdgeStyle;rounded=0;orthogonalLoop=1;jettySize=auto;html=1;exitX=1;exitY=0.5;exitDx=0;exitDy=0;exitPerimeter=0;entryX=1;entryY=0.5;entryDx=0;entryDy=0;" edge="1" parent="1" source="08e77g5gVcFAM2FmxPXd-5" target="08e77g5gVcFAM2FmxPXd-6">
          <mxGeometry relative="1" as="geometry" />
        </mxCell>
        <mxCell id="08e77g5gVcFAM2FmxPXd-4" value="N" style="edgeLabel;html=1;align=center;verticalAlign=middle;resizable=0;points=[];" vertex="1" connectable="0" parent="08e77g5gVcFAM2FmxPXd-3">
          <mxGeometry x="-0.1646" y="-2" relative="1" as="geometry">
            <mxPoint x="-3" y="-3" as="offset" />
          </mxGeometry>
        </mxCell>
        <mxCell id="08e77g5gVcFAM2FmxPXd-5" value="是否受到破坏伤害" style="strokeWidth=2;html=1;shape=mxgraph.flowchart.decision;whiteSpace=wrap;" vertex="1" parent="1">
          <mxGeometry x="158" y="396" width="147" height="100" as="geometry" />
        </mxCell>
        <mxCell id="08e77g5gVcFAM2FmxPXd-6" value="省性能版的&lt;div&gt;不可破坏版&lt;/div&gt;" style="rounded=1;whiteSpace=wrap;html=1;" vertex="1" parent="1">
          <mxGeometry x="171.5" y="285" width="120" height="60" as="geometry" />
        </mxCell>
        <mxCell id="08e77g5gVcFAM2FmxPXd-7" style="edgeStyle=orthogonalEdgeStyle;rounded=0;orthogonalLoop=1;jettySize=auto;html=1;exitX=0.5;exitY=1;exitDx=0;exitDy=0;entryX=0.5;entryY=0;entryDx=0;entryDy=0;entryPerimeter=0;" edge="1" parent="1" source="08e77g5gVcFAM2FmxPXd-6" target="08e77g5gVcFAM2FmxPXd-5">
          <mxGeometry relative="1" as="geometry" />
        </mxCell>
        <mxCell id="08e77g5gVcFAM2FmxPXd-8" value="&lt;div&gt;破坏伤害来源要统一接口&lt;/div&gt;&lt;div&gt;武器(子弹/投掷物等)，天灾(雷击等)，车辆撞击/爆炸&lt;/div&gt;&lt;div&gt;例：车辆爆炸和手雷都用爆炸？&lt;/div&gt;车辆破坏较为特殊&lt;div&gt;不同的物件需要支持配置不同的【可破坏时速】&lt;/div&gt;&lt;div&gt;当 撞击时车速&amp;gt;&lt;span style=&quot;background-color: initial;&quot;&gt;【可破坏&lt;/span&gt;时速&lt;span style=&quot;background-color: initial;&quot;&gt;】&lt;/span&gt;时&lt;/div&gt;&lt;div&gt;才会造成破坏，否则正常阻挡&lt;/div&gt;" style="shape=document;whiteSpace=wrap;html=1;boundedLbl=1;" vertex="1" parent="1">
          <mxGeometry x="-153" y="370.5" width="283" height="151" as="geometry" />
        </mxCell>
        <mxCell id="08e77g5gVcFAM2FmxPXd-9" value="&lt;br&gt;&lt;div style=&quot;forced-color-adjust: none; color: rgb(0, 0, 0); font-family: Helvetica; font-size: 12px; font-style: normal; font-variant-ligatures: normal; font-variant-caps: normal; font-weight: 400; letter-spacing: normal; orphans: 2; text-indent: 0px; text-transform: none; widows: 2; word-spacing: 0px; -webkit-text-stroke-width: 0px; white-space: normal; text-decoration-thickness: initial; text-decoration-style: initial; text-decoration-color: initial; text-align: center; background-color: rgb(255, 255, 255);&quot;&gt;已经放置在场景中&lt;/div&gt;&lt;div style=&quot;forced-color-adjust: none; color: rgb(0, 0, 0); font-family: Helvetica; font-size: 12px; font-style: normal; font-variant-ligatures: normal; font-variant-caps: normal; font-weight: 400; letter-spacing: normal; orphans: 2; text-indent: 0px; text-transform: none; widows: 2; word-spacing: 0px; -webkit-text-stroke-width: 0px; white-space: normal; text-decoration-thickness: initial; text-decoration-style: initial; text-decoration-color: initial; text-align: center; background-color: rgb(255, 255, 255);&quot;&gt;的可破坏物件&lt;/div&gt;" style="shape=document;whiteSpace=wrap;html=1;boundedLbl=1;" vertex="1" parent="1">
          <mxGeometry x="-26" y="159" width="164" height="73" as="geometry" />
        </mxCell>
        <mxCell id="08e77g5gVcFAM2FmxPXd-10" style="edgeStyle=orthogonalEdgeStyle;rounded=0;orthogonalLoop=1;jettySize=auto;html=1;exitX=0.5;exitY=1;exitDx=0;exitDy=0;exitPerimeter=0;entryX=0.5;entryY=0;entryDx=0;entryDy=0;entryPerimeter=0;" edge="1" parent="1" source="08e77g5gVcFAM2FmxPXd-15" target="08e77g5gVcFAM2FmxPXd-39">
          <mxGeometry relative="1" as="geometry">
            <mxPoint x="231.49999999999977" y="840" as="targetPoint" />
          </mxGeometry>
        </mxCell>
        <mxCell id="08e77g5gVcFAM2FmxPXd-11" value="进入破坏流程" style="edgeLabel;html=1;align=center;verticalAlign=middle;resizable=0;points=[];" vertex="1" connectable="0" parent="08e77g5gVcFAM2FmxPXd-10">
          <mxGeometry x="-0.1558" y="-1" relative="1" as="geometry">
            <mxPoint x="1" y="15" as="offset" />
          </mxGeometry>
        </mxCell>
        <mxCell id="08e77g5gVcFAM2FmxPXd-12" value="Y" style="edgeLabel;html=1;align=center;verticalAlign=middle;resizable=0;points=[];" vertex="1" connectable="0" parent="08e77g5gVcFAM2FmxPXd-10">
          <mxGeometry x="-0.5208" y="-1" relative="1" as="geometry">
            <mxPoint as="offset" />
          </mxGeometry>
        </mxCell>
        <mxCell id="08e77g5gVcFAM2FmxPXd-13" style="edgeStyle=orthogonalEdgeStyle;rounded=0;orthogonalLoop=1;jettySize=auto;html=1;exitX=1;exitY=0.5;exitDx=0;exitDy=0;exitPerimeter=0;entryX=0;entryY=0.5;entryDx=0;entryDy=0;entryPerimeter=0;" edge="1" parent="1" source="08e77g5gVcFAM2FmxPXd-15" target="08e77g5gVcFAM2FmxPXd-29">
          <mxGeometry relative="1" as="geometry">
            <Array as="points">
              <mxPoint x="375" y="726" />
              <mxPoint x="375" y="726" />
            </Array>
          </mxGeometry>
        </mxCell>
        <mxCell id="08e77g5gVcFAM2FmxPXd-14" value="N" style="edgeLabel;html=1;align=center;verticalAlign=middle;resizable=0;points=[];" vertex="1" connectable="0" parent="08e77g5gVcFAM2FmxPXd-13">
          <mxGeometry x="-0.2053" y="-1" relative="1" as="geometry">
            <mxPoint as="offset" />
          </mxGeometry>
        </mxCell>
        <mxCell id="08e77g5gVcFAM2FmxPXd-15" value="剩余血量/受击次数&lt;div&gt;是否&amp;lt;=0&lt;/div&gt;" style="strokeWidth=2;html=1;shape=mxgraph.flowchart.decision;whiteSpace=wrap;" vertex="1" parent="1">
          <mxGeometry x="158" y="676" width="147" height="100" as="geometry" />
        </mxCell>
        <mxCell id="08e77g5gVcFAM2FmxPXd-16" style="edgeStyle=orthogonalEdgeStyle;rounded=0;orthogonalLoop=1;jettySize=auto;html=1;exitX=0.5;exitY=1;exitDx=0;exitDy=0;exitPerimeter=0;entryX=0.5;entryY=0;entryDx=0;entryDy=0;entryPerimeter=0;" edge="1" parent="1" source="08e77g5gVcFAM2FmxPXd-24" target="08e77g5gVcFAM2FmxPXd-15">
          <mxGeometry relative="1" as="geometry" />
        </mxCell>
        <mxCell id="08e77g5gVcFAM2FmxPXd-22" value="" style="edgeStyle=orthogonalEdgeStyle;rounded=0;orthogonalLoop=1;jettySize=auto;html=1;exitX=0.5;exitY=1;exitDx=0;exitDy=0;exitPerimeter=0;entryX=0.5;entryY=0;entryDx=0;entryDy=0;entryPerimeter=0;" edge="1" parent="1" source="08e77g5gVcFAM2FmxPXd-5" target="08e77g5gVcFAM2FmxPXd-24">
          <mxGeometry relative="1" as="geometry">
            <mxPoint x="232" y="496" as="sourcePoint" />
            <mxPoint x="232" y="676" as="targetPoint" />
          </mxGeometry>
        </mxCell>
        <mxCell id="08e77g5gVcFAM2FmxPXd-23" value="Y" style="edgeLabel;html=1;align=center;verticalAlign=middle;resizable=0;points=[];" vertex="1" connectable="0" parent="08e77g5gVcFAM2FmxPXd-22">
          <mxGeometry x="-0.2861" y="-3" relative="1" as="geometry">
            <mxPoint x="3" y="2" as="offset" />
          </mxGeometry>
        </mxCell>
        <mxCell id="08e77g5gVcFAM2FmxPXd-24" value="可破坏版" style="rounded=1;whiteSpace=wrap;html=1;" vertex="1" parent="1">
          <mxGeometry x="171.5" y="556" width="120" height="60" as="geometry" />
        </mxCell>
        <mxCell id="08e77g5gVcFAM2FmxPXd-25" style="edgeStyle=orthogonalEdgeStyle;rounded=0;orthogonalLoop=1;jettySize=auto;html=1;exitX=1;exitY=0.5;exitDx=0;exitDy=0;exitPerimeter=0;entryX=1;entryY=0.5;entryDx=0;entryDy=0;" edge="1" parent="1" source="08e77g5gVcFAM2FmxPXd-29" target="08e77g5gVcFAM2FmxPXd-6">
          <mxGeometry relative="1" as="geometry" />
        </mxCell>
        <mxCell id="08e77g5gVcFAM2FmxPXd-26" value="Y" style="edgeLabel;html=1;align=center;verticalAlign=middle;resizable=0;points=[];" vertex="1" connectable="0" parent="08e77g5gVcFAM2FmxPXd-25">
          <mxGeometry x="-0.6223" y="-2" relative="1" as="geometry">
            <mxPoint x="-2" y="-1" as="offset" />
          </mxGeometry>
        </mxCell>
        <mxCell id="08e77g5gVcFAM2FmxPXd-27" style="edgeStyle=orthogonalEdgeStyle;rounded=0;orthogonalLoop=1;jettySize=auto;html=1;exitX=0.5;exitY=0;exitDx=0;exitDy=0;exitPerimeter=0;entryX=1;entryY=0.5;entryDx=0;entryDy=0;" edge="1" parent="1" source="08e77g5gVcFAM2FmxPXd-29" target="08e77g5gVcFAM2FmxPXd-24">
          <mxGeometry relative="1" as="geometry" />
        </mxCell>
        <mxCell id="08e77g5gVcFAM2FmxPXd-28" value="N" style="edgeLabel;html=1;align=center;verticalAlign=middle;resizable=0;points=[];" vertex="1" connectable="0" parent="08e77g5gVcFAM2FmxPXd-27">
          <mxGeometry x="0.1043" y="2" relative="1" as="geometry">
            <mxPoint x="-14" y="-2" as="offset" />
          </mxGeometry>
        </mxCell>
        <mxCell id="08e77g5gVcFAM2FmxPXd-29" value="圆形半径【检测玩家半径】米 范围内没有玩家存在&lt;div&gt;&lt;span style=&quot;background-color: initial;&quot;&gt;||&amp;nbsp;&lt;/span&gt;&lt;div&gt;连续【持续健康时间】秒 没有受到任何伤害&lt;/div&gt;&lt;/div&gt;" style="strokeWidth=2;html=1;shape=mxgraph.flowchart.decision;whiteSpace=wrap;" vertex="1" parent="1">
          <mxGeometry x="395" y="656" width="404" height="140" as="geometry" />
        </mxCell>
        <mxCell id="08e77g5gVcFAM2FmxPXd-30" value="【可破坏时速】&lt;div&gt;单位：同载具车速&lt;/div&gt;&lt;div&gt;数据类型：int&lt;/div&gt;" style="shape=document;whiteSpace=wrap;html=1;boundedLbl=1;fillColor=#FFAA00;strokeColor=#000000;" vertex="1" parent="1">
          <mxGeometry x="-301" y="370.5" width="120" height="94" as="geometry" />
        </mxCell>
        <mxCell id="08e77g5gVcFAM2FmxPXd-31" value="【检测玩家半径】&lt;div&gt;单位：米&lt;/div&gt;&lt;div&gt;数据类型：float&lt;/div&gt;" style="shape=document;whiteSpace=wrap;html=1;boundedLbl=1;fillColor=#FFAA00;strokeColor=#000000;" vertex="1" parent="1">
          <mxGeometry x="679" y="577" width="120" height="94" as="geometry" />
        </mxCell>
        <mxCell id="08e77g5gVcFAM2FmxPXd-32" value="【持续健康时间】&lt;div&gt;单位：秒&lt;/div&gt;&lt;div&gt;数据类型：float&lt;/div&gt;" style="shape=document;whiteSpace=wrap;html=1;boundedLbl=1;fillColor=#FFAA00;strokeColor=#000000;" vertex="1" parent="1">
          <mxGeometry x="679" y="776" width="120" height="94" as="geometry" />
        </mxCell>
        <mxCell id="08e77g5gVcFAM2FmxPXd-33" value="&lt;div&gt;&lt;b style=&quot;background-color: initial;&quot;&gt;备注&lt;/b&gt;&lt;/div&gt;为了阅读顺畅&lt;div&gt;不纠结Y/N方向&lt;/div&gt;" style="text;html=1;align=center;verticalAlign=middle;whiteSpace=wrap;rounded=0;" vertex="1" parent="1">
          <mxGeometry x="347" y="166.5" width="131" height="56" as="geometry" />
        </mxCell>
        <mxCell id="08e77g5gVcFAM2FmxPXd-35" value="【物件血量】&lt;div&gt;数据类型：float&lt;/div&gt;" style="shape=document;whiteSpace=wrap;html=1;boundedLbl=1;fillColor=#FFAA00;strokeColor=#000000;" vertex="1" parent="1">
          <mxGeometry x="-10" y="679" width="120" height="94" as="geometry" />
        </mxCell>
        <mxCell id="08e77g5gVcFAM2FmxPXd-36" value="【物件受击次数】&lt;div&gt;数据类型：int&lt;/div&gt;" style="shape=document;whiteSpace=wrap;html=1;boundedLbl=1;fillColor=#FFAA00;strokeColor=#000000;" vertex="1" parent="1">
          <mxGeometry x="-160" y="679" width="120" height="94" as="geometry" />
        </mxCell>
        <mxCell id="08e77g5gVcFAM2FmxPXd-37" style="edgeStyle=orthogonalEdgeStyle;rounded=0;orthogonalLoop=1;jettySize=auto;html=1;exitX=1;exitY=0.5;exitDx=0;exitDy=0;exitPerimeter=0;" edge="1" parent="1" source="08e77g5gVcFAM2FmxPXd-39" target="08e77g5gVcFAM2FmxPXd-41">
          <mxGeometry relative="1" as="geometry" />
        </mxCell>
        <mxCell id="08e77g5gVcFAM2FmxPXd-38" value="Y" style="edgeLabel;html=1;align=center;verticalAlign=middle;resizable=0;points=[];" vertex="1" connectable="0" parent="08e77g5gVcFAM2FmxPXd-37">
          <mxGeometry x="-0.0923" y="-1" relative="1" as="geometry">
            <mxPoint as="offset" />
          </mxGeometry>
        </mxCell>
        <mxCell id="08e77g5gVcFAM2FmxPXd-39" value="是否配置了&lt;b&gt;特效+音效&lt;/b&gt;" style="strokeWidth=2;html=1;shape=mxgraph.flowchart.decision;whiteSpace=wrap;" vertex="1" parent="1">
          <mxGeometry x="158" y="866" width="147" height="61" as="geometry" />
        </mxCell>
        <mxCell id="08e77g5gVcFAM2FmxPXd-41" value="播放破坏&lt;b&gt;特效+音效&lt;/b&gt;" style="rounded=1;whiteSpace=wrap;html=1;" vertex="1" parent="1">
          <mxGeometry x="409" y="895" width="120" height="60" as="geometry" />
        </mxCell>
        <mxCell id="08e77g5gVcFAM2FmxPXd-48" style="edgeStyle=orthogonalEdgeStyle;rounded=0;orthogonalLoop=1;jettySize=auto;html=1;exitX=0.5;exitY=1;exitDx=0;exitDy=0;exitPerimeter=0;entryX=0.5;entryY=0;entryDx=0;entryDy=0;entryPerimeter=0;" edge="1" parent="1" source="08e77g5gVcFAM2FmxPXd-39" target="08e77g5gVcFAM2FmxPXd-72">
          <mxGeometry relative="1" as="geometry">
            <mxPoint x="231.5" y="1095" as="targetPoint" />
          </mxGeometry>
        </mxCell>
        <mxCell id="08e77g5gVcFAM2FmxPXd-49" value="N" style="edgeLabel;html=1;align=center;verticalAlign=middle;resizable=0;points=[];" vertex="1" connectable="0" parent="08e77g5gVcFAM2FmxPXd-48">
          <mxGeometry x="-0.3495" y="-2" relative="1" as="geometry">
            <mxPoint as="offset" />
          </mxGeometry>
        </mxCell>
        <mxCell id="08e77g5gVcFAM2FmxPXd-52" value="开启物理模拟" style="rounded=1;whiteSpace=wrap;html=1;" vertex="1" parent="1">
          <mxGeometry x="171.5" y="1208" width="120" height="60" as="geometry" />
        </mxCell>
        <mxCell id="08e77g5gVcFAM2FmxPXd-53" value="开启物理模拟可以直接使用相关参数控制物理效果&lt;div&gt;质量、摩擦力、弹性、线性阻尼和角度阻尼等&lt;/div&gt;&lt;div&gt;也需要针对每个可破坏物件进行配置&lt;/div&gt;" style="shape=document;whiteSpace=wrap;html=1;boundedLbl=1;fillColor=#FFAA00;strokeColor=#000000;" vertex="1" parent="1">
          <mxGeometry x="-148" y="1191" width="296" height="94" as="geometry" />
        </mxCell>
        <mxCell id="08e77g5gVcFAM2FmxPXd-54" style="edgeStyle=orthogonalEdgeStyle;rounded=0;orthogonalLoop=1;jettySize=auto;html=1;exitX=0.5;exitY=1;exitDx=0;exitDy=0;exitPerimeter=0;entryX=0.5;entryY=0;entryDx=0;entryDy=0;" edge="1" parent="1" source="08e77g5gVcFAM2FmxPXd-56" target="08e77g5gVcFAM2FmxPXd-62">
          <mxGeometry relative="1" as="geometry" />
        </mxCell>
        <mxCell id="08e77g5gVcFAM2FmxPXd-55" value="Y" style="edgeLabel;html=1;align=center;verticalAlign=middle;resizable=0;points=[];" vertex="1" connectable="0" parent="08e77g5gVcFAM2FmxPXd-54">
          <mxGeometry x="-0.138" y="-2" relative="1" as="geometry">
            <mxPoint as="offset" />
          </mxGeometry>
        </mxCell>
        <mxCell id="08e77g5gVcFAM2FmxPXd-56" value="圆形半径【物件重置检测玩家半径】米&amp;nbsp;&lt;div&gt;范围内没有玩家存在&lt;div&gt;&lt;span style=&quot;background-color: initial;&quot;&gt;||&amp;nbsp;&lt;/span&gt;&lt;div&gt;【重置CD】&amp;lt;=0时&lt;/div&gt;&lt;/div&gt;&lt;/div&gt;" style="strokeWidth=2;html=1;shape=mxgraph.flowchart.decision;whiteSpace=wrap;" vertex="1" parent="1">
          <mxGeometry x="24.630000000000003" y="1522" width="413.75" height="116" as="geometry" />
        </mxCell>
        <mxCell id="08e77g5gVcFAM2FmxPXd-57" style="edgeStyle=orthogonalEdgeStyle;rounded=0;orthogonalLoop=1;jettySize=auto;html=1;exitX=0.5;exitY=1;exitDx=0;exitDy=0;entryX=0.5;entryY=0;entryDx=0;entryDy=0;entryPerimeter=0;" edge="1" parent="1" source="08e77g5gVcFAM2FmxPXd-61" target="08e77g5gVcFAM2FmxPXd-56">
          <mxGeometry relative="1" as="geometry" />
        </mxCell>
        <mxCell id="08e77g5gVcFAM2FmxPXd-58" value="【物件重置检测玩家半径】&lt;div&gt;单位：米&lt;/div&gt;&lt;div&gt;数据类型：float&lt;/div&gt;" style="shape=document;whiteSpace=wrap;html=1;boundedLbl=1;fillColor=#FFAA00;strokeColor=#000000;" vertex="1" parent="1">
          <mxGeometry x="473" y="1599" width="146" height="94" as="geometry" />
        </mxCell>
        <mxCell id="08e77g5gVcFAM2FmxPXd-59" value="【重置CD】&lt;div&gt;单位：秒&lt;/div&gt;&lt;div&gt;数据类型：float&lt;/div&gt;" style="shape=document;whiteSpace=wrap;html=1;boundedLbl=1;fillColor=#FFAA00;strokeColor=#000000;" vertex="1" parent="1">
          <mxGeometry x="483" y="1496" width="120" height="94" as="geometry" />
        </mxCell>
        <mxCell id="08e77g5gVcFAM2FmxPXd-60" value="" style="edgeStyle=orthogonalEdgeStyle;rounded=0;orthogonalLoop=1;jettySize=auto;html=1;exitX=0.5;exitY=1;exitDx=0;exitDy=0;entryX=0.5;entryY=0;entryDx=0;entryDy=0;entryPerimeter=0;" edge="1" parent="1" source="08e77g5gVcFAM2FmxPXd-52" target="08e77g5gVcFAM2FmxPXd-61">
          <mxGeometry relative="1" as="geometry">
            <mxPoint x="232" y="1491" as="sourcePoint" />
            <mxPoint x="232" y="1641" as="targetPoint" />
          </mxGeometry>
        </mxCell>
        <mxCell id="08e77g5gVcFAM2FmxPXd-61" value="【重置CD】&lt;div&gt;进入倒计时&lt;/div&gt;" style="rounded=1;whiteSpace=wrap;html=1;" vertex="1" parent="1">
          <mxGeometry x="171.5" y="1379" width="120" height="60" as="geometry" />
        </mxCell>
        <mxCell id="08e77g5gVcFAM2FmxPXd-62" value="销毁该部件" style="rounded=1;whiteSpace=wrap;html=1;" vertex="1" parent="1">
          <mxGeometry x="171.51" y="1721" width="120" height="60" as="geometry" />
        </mxCell>
        <mxCell id="08e77g5gVcFAM2FmxPXd-63" style="edgeStyle=orthogonalEdgeStyle;rounded=0;orthogonalLoop=1;jettySize=auto;html=1;exitX=0.5;exitY=1;exitDx=0;exitDy=0;exitPerimeter=0;entryX=0.5;entryY=0;entryDx=0;entryDy=0;" edge="1" parent="1" source="08e77g5gVcFAM2FmxPXd-65" target="08e77g5gVcFAM2FmxPXd-67">
          <mxGeometry relative="1" as="geometry" />
        </mxCell>
        <mxCell id="08e77g5gVcFAM2FmxPXd-64" value="Y" style="edgeLabel;html=1;align=center;verticalAlign=middle;resizable=0;points=[];" vertex="1" connectable="0" parent="08e77g5gVcFAM2FmxPXd-63">
          <mxGeometry x="-0.2456" y="1" relative="1" as="geometry">
            <mxPoint as="offset" />
          </mxGeometry>
        </mxCell>
        <mxCell id="08e77g5gVcFAM2FmxPXd-65" value="该物件出生点上是否&lt;div&gt;有空间重置生成本体&lt;/div&gt;" style="strokeWidth=2;html=1;shape=mxgraph.flowchart.decision;whiteSpace=wrap;" vertex="1" parent="1">
          <mxGeometry x="121.82" y="1878" width="219.37" height="87" as="geometry" />
        </mxCell>
        <mxCell id="08e77g5gVcFAM2FmxPXd-66" style="edgeStyle=orthogonalEdgeStyle;rounded=0;orthogonalLoop=1;jettySize=auto;html=1;exitX=0.5;exitY=1;exitDx=0;exitDy=0;entryX=0.5;entryY=0;entryDx=0;entryDy=0;entryPerimeter=0;" edge="1" parent="1" source="08e77g5gVcFAM2FmxPXd-62" target="08e77g5gVcFAM2FmxPXd-65">
          <mxGeometry relative="1" as="geometry" />
        </mxCell>
        <mxCell id="08e77g5gVcFAM2FmxPXd-67" value="重置生成" style="ellipse;whiteSpace=wrap;html=1;" vertex="1" parent="1">
          <mxGeometry x="171.5" y="2052" width="120" height="80" as="geometry" />
        </mxCell>
        <mxCell id="08e77g5gVcFAM2FmxPXd-68" style="edgeStyle=orthogonalEdgeStyle;rounded=0;orthogonalLoop=1;jettySize=auto;html=1;exitX=0.5;exitY=1;exitDx=0;exitDy=0;exitPerimeter=0;" edge="1" parent="1" source="08e77g5gVcFAM2FmxPXd-72" target="08e77g5gVcFAM2FmxPXd-52">
          <mxGeometry relative="1" as="geometry" />
        </mxCell>
        <mxCell id="08e77g5gVcFAM2FmxPXd-69" value="Y" style="edgeLabel;html=1;align=center;verticalAlign=middle;resizable=0;points=[];" vertex="1" connectable="0" parent="08e77g5gVcFAM2FmxPXd-68">
          <mxGeometry x="-0.2478" relative="1" as="geometry">
            <mxPoint as="offset" />
          </mxGeometry>
        </mxCell>
        <mxCell id="08e77g5gVcFAM2FmxPXd-70" style="edgeStyle=orthogonalEdgeStyle;rounded=0;orthogonalLoop=1;jettySize=auto;html=1;exitX=1;exitY=0.5;exitDx=0;exitDy=0;exitPerimeter=0;entryX=1;entryY=0.5;entryDx=0;entryDy=0;" edge="1" parent="1" source="08e77g5gVcFAM2FmxPXd-72" target="08e77g5gVcFAM2FmxPXd-61">
          <mxGeometry relative="1" as="geometry" />
        </mxCell>
        <mxCell id="08e77g5gVcFAM2FmxPXd-71" value="N" style="edgeLabel;html=1;align=center;verticalAlign=middle;resizable=0;points=[];" vertex="1" connectable="0" parent="08e77g5gVcFAM2FmxPXd-70">
          <mxGeometry x="-0.165" relative="1" as="geometry">
            <mxPoint as="offset" />
          </mxGeometry>
        </mxCell>
        <mxCell id="08e77g5gVcFAM2FmxPXd-72" value="是否配置了&lt;div&gt;破坏后开启物理模拟&lt;/div&gt;" style="strokeWidth=2;html=1;shape=mxgraph.flowchart.decision;whiteSpace=wrap;" vertex="1" parent="1">
          <mxGeometry x="158.01" y="1031" width="147" height="74" as="geometry" />
        </mxCell>
        <mxCell id="08e77g5gVcFAM2FmxPXd-74" style="edgeStyle=orthogonalEdgeStyle;rounded=0;orthogonalLoop=1;jettySize=auto;html=1;exitX=0.5;exitY=1;exitDx=0;exitDy=0;entryX=0.5;entryY=0;entryDx=0;entryDy=0;entryPerimeter=0;" edge="1" parent="1" source="08e77g5gVcFAM2FmxPXd-41" target="08e77g5gVcFAM2FmxPXd-72">
          <mxGeometry relative="1" as="geometry">
            <mxPoint x="231.5" y="1095" as="targetPoint" />
          </mxGeometry>
        </mxCell>
      </root>
    </mxGraphModel>
  </diagram>
</mxfile>
